<?xml version="1.0" encoding="utf-8" standalone="no"?>
<!DOCTYPE svg PUBLIC "-//W3C//DTD SVG 1.1//EN"
  "http://www.w3.org/Graphics/SVG/1.1/DTD/svg11.dtd">
<svg xmlns:xlink="http://www.w3.org/1999/xlink" width="460.8pt" height="345.6pt" viewBox="0 0 460.8 345.6" xmlns="http://www.w3.org/2000/svg" version="1.1">
 <metadata>
  <rdf:RDF xmlns:dc="http://purl.org/dc/elements/1.1/" xmlns:cc="http://creativecommons.org/ns#" xmlns:rdf="http://www.w3.org/1999/02/22-rdf-syntax-ns#">
   <cc:Work>
    <dc:type rdf:resource="http://purl.org/dc/dcmitype/StillImage"/>
    <dc:date>2026-02-20T09:03:39.959765</dc:date>
    <dc:format>image/svg+xml</dc:format>
    <dc:creator>
     <cc:Agent>
      <dc:title>Matplotlib v3.10.8, https://matplotlib.org/</dc:title>
     </cc:Agent>
    </dc:creator>
   </cc:Work>
  </rdf:RDF>
 </metadata>
 <defs>
  <style type="text/css">*{stroke-linejoin: round; stroke-linecap: butt}</style>
 </defs>
 <g id="figure_1">
  <g id="patch_1">
   <path d="M 0 345.6 
L 460.8 345.6 
L 460.8 0 
L 0 0 
z
" style="fill: #ffffff"/>
  </g>
  <g id="axes_1">
   <g id="patch_2">
    <path d="M 57.6 307.584 
L 414.72 307.584 
L 414.72 41.472 
L 57.6 41.472 
z
" style="fill: #ffffff"/>
   </g>
   <g id="patch_3">
    <path d="M 73.832798 307.584 
L 78.856967 307.584 
L 78.856967 54.144 
L 73.832798 54.144 
z
" clip-path="url(#p2384e8f02c)" style="fill: #1f77b4; opacity: 0.5"/>
   </g>
   <g id="patch_4">
    <path d="M 78.856967 307.584 
L 83.881135 307.584 
L 83.881135 65.059253 
L 78.856967 65.059253 
z
" clip-path="url(#p2384e8f02c)" style="fill: #1f77b4; opacity: 0.5"/>
   </g>
   <g id="patch_5">
    <path d="M 83.881135 307.584 
L 88.905304 307.584 
L 88.905304 75.552887 
L 83.881135 75.552887 
z
" clip-path="url(#p2384e8f02c)" style="fill: #1f77b4; opacity: 0.5"/>
   </g>
   <g id="patch_6">
    <path d="M 88.905304 307.584 
L 93.929472 307.584 
L 93.929472 88.951009 
L 88.905304 88.951009 
z
" clip-path="url(#p2384e8f02c)" style="fill: #1f77b4; opacity: 0.5"/>
   </g>
   <g id="patch_7">
    <path d="M 93.929472 307.584 
L 98.953641 307.584 
L 98.953641 106.003165 
L 93.929472 106.003165 
z
" clip-path="url(#p2384e8f02c)" style="fill: #1f77b4; opacity: 0.5"/>
   </g>
   <g id="patch_8">
    <path d="M 98.953641 307.584 
L 103.977809 307.584 
L 103.977809 118.230122 
L 98.953641 118.230122 
z
" clip-path="url(#p2384e8f02c)" style="fill: #1f77b4; opacity: 0.5"/>
   </g>
   <g id="patch_9">
    <path d="M 103.977809 307.584 
L 109.001978 307.584 
L 109.001978 143.199349 
L 103.977809 143.199349 
z
" clip-path="url(#p2384e8f02c)" style="fill: #1f77b4; opacity: 0.5"/>
   </g>
   <g id="patch_10">
    <path d="M 109.001978 307.584 
L 114.026146 307.584 
L 114.026146 159.267726 
L 109.001978 159.267726 
z
" clip-path="url(#p2384e8f02c)" style="fill: #1f77b4; opacity: 0.5"/>
   </g>
   <g id="patch_11">
    <path d="M 114.026146 307.584 
L 119.050312 307.584 
L 119.050312 178.662154 
L 114.026146 178.662154 
z
" clip-path="url(#p2384e8f02c)" style="fill: #1f77b4; opacity: 0.5"/>
   </g>
   <g id="patch_12">
    <path d="M 119.050312 307.584 
L 124.074483 307.584 
L 124.074483 187.469421 
L 119.050312 187.469421 
z
" clip-path="url(#p2384e8f02c)" style="fill: #1f77b4; opacity: 0.5"/>
   </g>
   <g id="patch_13">
    <path d="M 124.074483 307.584 
L 129.098654 307.584 
L 129.098654 204.240489 
L 124.074483 204.240489 
z
" clip-path="url(#p2384e8f02c)" style="fill: #1f77b4; opacity: 0.5"/>
   </g>
   <g id="patch_14">
    <path d="M 129.098654 307.584 
L 134.12282 307.584 
L 134.12282 217.451139 
L 129.098654 217.451139 
z
" clip-path="url(#p2384e8f02c)" style="fill: #1f77b4; opacity: 0.5"/>
   </g>
   <g id="patch_15">
    <path d="M 134.12282 307.584 
L 139.146986 307.584 
L 139.146986 230.146568 
L 134.12282 230.146568 
z
" clip-path="url(#p2384e8f02c)" style="fill: #1f77b4; opacity: 0.5"/>
   </g>
   <g id="patch_16">
    <path d="M 139.146986 307.584 
L 144.171157 307.584 
L 144.171157 241.858277 
L 139.146986 241.858277 
z
" clip-path="url(#p2384e8f02c)" style="fill: #1f77b4; opacity: 0.5"/>
   </g>
   <g id="patch_17">
    <path d="M 144.171157 307.584 
L 149.195328 307.584 
L 149.195328 245.699695 
L 144.171157 245.699695 
z
" clip-path="url(#p2384e8f02c)" style="fill: #1f77b4; opacity: 0.5"/>
   </g>
   <g id="patch_18">
    <path d="M 149.195328 307.584 
L 154.219494 307.584 
L 154.219494 256.755438 
L 149.195328 256.755438 
z
" clip-path="url(#p2384e8f02c)" style="fill: #1f77b4; opacity: 0.5"/>
   </g>
   <g id="patch_19">
    <path d="M 154.219494 307.584 
L 159.24366 307.584 
L 159.24366 262.002257 
L 154.219494 262.002257 
z
" clip-path="url(#p2384e8f02c)" style="fill: #1f77b4; opacity: 0.5"/>
   </g>
   <g id="patch_20">
    <path d="M 159.24366 307.584 
L 164.267827 307.584 
L 164.267827 267.34277 
L 159.24366 267.34277 
z
" clip-path="url(#p2384e8f02c)" style="fill: #1f77b4; opacity: 0.5"/>
   </g>
   <g id="patch_21">
    <path d="M 164.267827 307.584 
L 169.292002 307.584 
L 169.292002 272.402265 
L 164.267827 272.402265 
z
" clip-path="url(#p2384e8f02c)" style="fill: #1f77b4; opacity: 0.5"/>
   </g>
   <g id="patch_22">
    <path d="M 169.292002 307.584 
L 174.316168 307.584 
L 174.316168 278.351721 
L 169.292002 278.351721 
z
" clip-path="url(#p2384e8f02c)" style="fill: #1f77b4; opacity: 0.5"/>
   </g>
   <g id="patch_23">
    <path d="M 174.316168 307.584 
L 179.340334 307.584 
L 179.340334 285.050785 
L 174.316168 285.050785 
z
" clip-path="url(#p2384e8f02c)" style="fill: #1f77b4; opacity: 0.5"/>
   </g>
   <g id="patch_24">
    <path d="M 179.340334 307.584 
L 184.364509 307.584 
L 184.364509 289.407551 
L 179.340334 289.407551 
z
" clip-path="url(#p2384e8f02c)" style="fill: #1f77b4; opacity: 0.5"/>
   </g>
   <g id="patch_25">
    <path d="M 184.364509 307.584 
L 189.388676 307.584 
L 189.388676 291.562462 
L 184.364509 291.562462 
z
" clip-path="url(#p2384e8f02c)" style="fill: #1f77b4; opacity: 0.5"/>
   </g>
   <g id="patch_26">
    <path d="M 189.388676 307.584 
L 194.412842 307.584 
L 194.412842 293.155247 
L 189.388676 293.155247 
z
" clip-path="url(#p2384e8f02c)" style="fill: #1f77b4; opacity: 0.5"/>
   </g>
   <g id="patch_27">
    <path d="M 194.412842 307.584 
L 199.437008 307.584 
L 199.437008 295.684963 
L 194.412842 295.684963 
z
" clip-path="url(#p2384e8f02c)" style="fill: #1f77b4; opacity: 0.5"/>
   </g>
   <g id="patch_28">
    <path d="M 199.437008 307.584 
L 204.461174 307.584 
L 204.461174 299.011072 
L 199.437008 299.011072 
z
" clip-path="url(#p2384e8f02c)" style="fill: #1f77b4; opacity: 0.5"/>
   </g>
   <g id="patch_29">
    <path d="M 204.461174 307.584 
L 209.48535 307.584 
L 209.48535 301.587646 
L 204.461174 301.587646 
z
" clip-path="url(#p2384e8f02c)" style="fill: #1f77b4; opacity: 0.5"/>
   </g>
   <g id="patch_30">
    <path d="M 209.48535 307.584 
L 214.509516 307.584 
L 214.509516 302.196641 
L 209.48535 302.196641 
z
" clip-path="url(#p2384e8f02c)" style="fill: #1f77b4; opacity: 0.5"/>
   </g>
   <g id="patch_31">
    <path d="M 214.509516 307.584 
L 219.533682 307.584 
L 219.533682 302.7588 
L 214.509516 302.7588 
z
" clip-path="url(#p2384e8f02c)" style="fill: #1f77b4; opacity: 0.5"/>
   </g>
   <g id="patch_32">
    <path d="M 219.533682 307.584 
L 224.557857 307.584 
L 224.557857 304.070511 
L 219.533682 304.070511 
z
" clip-path="url(#p2384e8f02c)" style="fill: #1f77b4; opacity: 0.5"/>
   </g>
   <g id="patch_33">
    <path d="M 224.557857 307.584 
L 229.582015 307.584 
L 229.582015 304.445272 
L 224.557857 304.445272 
z
" clip-path="url(#p2384e8f02c)" style="fill: #1f77b4; opacity: 0.5"/>
   </g>
   <g id="patch_34">
    <path d="M 229.582015 307.584 
L 234.60619 307.584 
L 234.60619 305.288521 
L 229.582015 305.288521 
z
" clip-path="url(#p2384e8f02c)" style="fill: #1f77b4; opacity: 0.5"/>
   </g>
   <g id="patch_35">
    <path d="M 234.60619 307.584 
L 239.630365 307.584 
L 239.630365 305.850679 
L 234.60619 305.850679 
z
" clip-path="url(#p2384e8f02c)" style="fill: #1f77b4; opacity: 0.5"/>
   </g>
   <g id="patch_36">
    <path d="M 239.630365 307.584 
L 244.654522 307.584 
L 244.654522 305.710133 
L 239.630365 305.710133 
z
" clip-path="url(#p2384e8f02c)" style="fill: #1f77b4; opacity: 0.5"/>
   </g>
   <g id="patch_37">
    <path d="M 244.654522 307.584 
L 249.678697 307.584 
L 249.678697 306.412837 
L 244.654522 306.412837 
z
" clip-path="url(#p2384e8f02c)" style="fill: #1f77b4; opacity: 0.5"/>
   </g>
   <g id="patch_38">
    <path d="M 249.678697 307.584 
L 254.702855 307.584 
L 254.702855 306.8813 
L 249.678697 306.8813 
z
" clip-path="url(#p2384e8f02c)" style="fill: #1f77b4; opacity: 0.5"/>
   </g>
   <g id="patch_39">
    <path d="M 254.702855 307.584 
L 259.72703 307.584 
L 259.72703 306.881302 
L 254.702855 306.881302 
z
" clip-path="url(#p2384e8f02c)" style="fill: #1f77b4; opacity: 0.5"/>
   </g>
   <g id="patch_40">
    <path d="M 259.72703 307.584 
L 264.751205 307.584 
L 264.751205 307.44346 
L 259.72703 307.44346 
z
" clip-path="url(#p2384e8f02c)" style="fill: #1f77b4; opacity: 0.5"/>
   </g>
   <g id="patch_41">
    <path d="M 264.751205 307.584 
L 269.775363 307.584 
L 269.775363 307.396613 
L 264.751205 307.396613 
z
" clip-path="url(#p2384e8f02c)" style="fill: #1f77b4; opacity: 0.5"/>
   </g>
   <g id="patch_42">
    <path d="M 269.775363 307.584 
L 274.799538 307.584 
L 274.799538 307.44346 
L 269.775363 307.44346 
z
" clip-path="url(#p2384e8f02c)" style="fill: #1f77b4; opacity: 0.5"/>
   </g>
   <g id="patch_43">
    <path d="M 274.799538 307.584 
L 279.823713 307.584 
L 279.823713 307.44346 
L 274.799538 307.44346 
z
" clip-path="url(#p2384e8f02c)" style="fill: #1f77b4; opacity: 0.5"/>
   </g>
   <g id="patch_44">
    <path d="M 279.823713 307.584 
L 284.84787 307.584 
L 284.84787 307.490307 
L 279.823713 307.490307 
z
" clip-path="url(#p2384e8f02c)" style="fill: #1f77b4; opacity: 0.5"/>
   </g>
   <g id="patch_45">
    <path d="M 284.84787 307.584 
L 289.872045 307.584 
L 289.872045 307.302921 
L 284.84787 307.302921 
z
" clip-path="url(#p2384e8f02c)" style="fill: #1f77b4; opacity: 0.5"/>
   </g>
   <g id="patch_46">
    <path d="M 289.872045 307.584 
L 294.89622 307.584 
L 294.89622 307.349767 
L 289.872045 307.349767 
z
" clip-path="url(#p2384e8f02c)" style="fill: #1f77b4; opacity: 0.5"/>
   </g>
   <g id="patch_47">
    <path d="M 294.89622 307.584 
L 299.920378 307.584 
L 299.920378 307.396613 
L 294.89622 307.396613 
z
" clip-path="url(#p2384e8f02c)" style="fill: #1f77b4; opacity: 0.5"/>
   </g>
   <g id="patch_48">
    <path d="M 299.920378 307.584 
L 304.944553 307.584 
L 304.944553 307.537153 
L 299.920378 307.537153 
z
" clip-path="url(#p2384e8f02c)" style="fill: #1f77b4; opacity: 0.5"/>
   </g>
   <g id="patch_49">
    <path d="M 304.944553 307.584 
L 309.96871 307.584 
L 309.96871 307.537153 
L 304.944553 307.537153 
z
" clip-path="url(#p2384e8f02c)" style="fill: #1f77b4; opacity: 0.5"/>
   </g>
   <g id="patch_50">
    <path d="M 309.96871 307.584 
L 314.992886 307.584 
L 314.992886 307.584 
L 309.96871 307.584 
z
" clip-path="url(#p2384e8f02c)" style="fill: #1f77b4; opacity: 0.5"/>
   </g>
   <g id="patch_51">
    <path d="M 314.992886 307.584 
L 320.017061 307.584 
L 320.017061 307.584 
L 314.992886 307.584 
z
" clip-path="url(#p2384e8f02c)" style="fill: #1f77b4; opacity: 0.5"/>
   </g>
   <g id="patch_52">
    <path d="M 320.017061 307.584 
L 325.041218 307.584 
L 325.041218 307.537153 
L 320.017061 307.537153 
z
" clip-path="url(#p2384e8f02c)" style="fill: #1f77b4; opacity: 0.5"/>
   </g>
   <g id="patch_53">
    <path d="M 73.832727 307.584 
L 80.325818 307.584 
L 80.325818 193.364831 
L 73.832727 193.364831 
z
" clip-path="url(#p2384e8f02c)" style="fill: #ff7f0e; opacity: 0.5"/>
   </g>
   <g id="patch_54">
    <path d="M 80.325818 307.584 
L 86.818909 307.584 
L 86.818909 191.588652 
L 80.325818 191.588652 
z
" clip-path="url(#p2384e8f02c)" style="fill: #ff7f0e; opacity: 0.5"/>
   </g>
   <g id="patch_55">
    <path d="M 86.818909 307.584 
L 93.312001 307.584 
L 93.312001 194.307303 
L 86.818909 194.307303 
z
" clip-path="url(#p2384e8f02c)" style="fill: #ff7f0e; opacity: 0.5"/>
   </g>
   <g id="patch_56">
    <path d="M 93.312001 307.584 
L 99.805092 307.584 
L 99.805092 197.13467 
L 93.312001 197.13467 
z
" clip-path="url(#p2384e8f02c)" style="fill: #ff7f0e; opacity: 0.5"/>
   </g>
   <g id="patch_57">
    <path d="M 99.805092 307.584 
L 106.298182 307.584 
L 106.298182 201.411999 
L 99.805092 201.411999 
z
" clip-path="url(#p2384e8f02c)" style="fill: #ff7f0e; opacity: 0.5"/>
   </g>
   <g id="patch_58">
    <path d="M 106.298182 307.584 
L 112.791275 307.584 
L 112.791275 202.825728 
L 106.298182 202.825728 
z
" clip-path="url(#p2384e8f02c)" style="fill: #ff7f0e; opacity: 0.5"/>
   </g>
   <g id="patch_59">
    <path d="M 112.791275 307.584 
L 119.284366 307.584 
L 119.284366 207.066773 
L 112.791275 207.066773 
z
" clip-path="url(#p2384e8f02c)" style="fill: #ff7f0e; opacity: 0.5"/>
   </g>
   <g id="patch_60">
    <path d="M 119.284366 307.584 
L 125.777456 307.584 
L 125.777456 214.570223 
L 119.284366 214.570223 
z
" clip-path="url(#p2384e8f02c)" style="fill: #ff7f0e; opacity: 0.5"/>
   </g>
   <g id="patch_61">
    <path d="M 125.777456 307.584 
L 132.270547 307.584 
L 132.270547 214.316483 
L 125.777456 214.316483 
z
" clip-path="url(#p2384e8f02c)" style="fill: #ff7f0e; opacity: 0.5"/>
   </g>
   <g id="patch_62">
    <path d="M 132.270547 307.584 
L 138.763637 307.584 
L 138.763637 219.282534 
L 132.270547 219.282534 
z
" clip-path="url(#p2384e8f02c)" style="fill: #ff7f0e; opacity: 0.5"/>
   </g>
   <g id="patch_63">
    <path d="M 138.763637 307.584 
L 145.256728 307.584 
L 145.256728 224.284834 
L 138.763637 224.284834 
z
" clip-path="url(#p2384e8f02c)" style="fill: #ff7f0e; opacity: 0.5"/>
   </g>
   <g id="patch_64">
    <path d="M 145.256728 307.584 
L 151.749823 307.584 
L 151.749823 230.70088 
L 145.256728 230.70088 
z
" clip-path="url(#p2384e8f02c)" style="fill: #ff7f0e; opacity: 0.5"/>
   </g>
   <g id="patch_65">
    <path d="M 151.749823 307.584 
L 158.242913 307.584 
L 158.242913 232.694497 
L 151.749823 232.694497 
z
" clip-path="url(#p2384e8f02c)" style="fill: #ff7f0e; opacity: 0.5"/>
   </g>
   <g id="patch_66">
    <path d="M 158.242913 307.584 
L 164.736004 307.584 
L 164.736004 235.594381 
L 158.242913 235.594381 
z
" clip-path="url(#p2384e8f02c)" style="fill: #ff7f0e; opacity: 0.5"/>
   </g>
   <g id="patch_67">
    <path d="M 164.736004 307.584 
L 171.229094 307.584 
L 171.229094 238.023034 
L 164.736004 238.023034 
z
" clip-path="url(#p2384e8f02c)" style="fill: #ff7f0e; opacity: 0.5"/>
   </g>
   <g id="patch_68">
    <path d="M 171.229094 307.584 
L 177.722185 307.584 
L 177.722185 245.780223 
L 171.229094 245.780223 
z
" clip-path="url(#p2384e8f02c)" style="fill: #ff7f0e; opacity: 0.5"/>
   </g>
   <g id="patch_69">
    <path d="M 177.722185 307.584 
L 184.215276 307.584 
L 184.215276 246.61394 
L 177.722185 246.61394 
z
" clip-path="url(#p2384e8f02c)" style="fill: #ff7f0e; opacity: 0.5"/>
   </g>
   <g id="patch_70">
    <path d="M 184.215276 307.584 
L 190.708366 307.584 
L 190.708366 252.486205 
L 184.215276 252.486205 
z
" clip-path="url(#p2384e8f02c)" style="fill: #ff7f0e; opacity: 0.5"/>
   </g>
   <g id="patch_71">
    <path d="M 190.708366 307.584 
L 197.201457 307.584 
L 197.201457 258.068482 
L 190.708366 258.068482 
z
" clip-path="url(#p2384e8f02c)" style="fill: #ff7f0e; opacity: 0.5"/>
   </g>
   <g id="patch_72">
    <path d="M 197.201457 307.584 
L 203.694547 307.584 
L 203.694547 260.243395 
L 197.201457 260.243395 
z
" clip-path="url(#p2384e8f02c)" style="fill: #ff7f0e; opacity: 0.5"/>
   </g>
   <g id="patch_73">
    <path d="M 203.694547 307.584 
L 210.187638 307.584 
L 210.187638 264.303232 
L 203.694547 264.303232 
z
" clip-path="url(#p2384e8f02c)" style="fill: #ff7f0e; opacity: 0.5"/>
   </g>
   <g id="patch_74">
    <path d="M 210.187638 307.584 
L 216.680728 307.584 
L 216.680728 268.10933 
L 210.187638 268.10933 
z
" clip-path="url(#p2384e8f02c)" style="fill: #ff7f0e; opacity: 0.5"/>
   </g>
   <g id="patch_75">
    <path d="M 216.680728 307.584 
L 223.173819 307.584 
L 223.173819 273.292872 
L 216.680728 273.292872 
z
" clip-path="url(#p2384e8f02c)" style="fill: #ff7f0e; opacity: 0.5"/>
   </g>
   <g id="patch_76">
    <path d="M 223.173819 307.584 
L 229.666918 307.584 
L 229.666918 276.845272 
L 223.173819 276.845272 
z
" clip-path="url(#p2384e8f02c)" style="fill: #ff7f0e; opacity: 0.5"/>
   </g>
   <g id="patch_77">
    <path d="M 229.666918 307.584 
L 236.16 307.584 
L 236.16 280.180059 
L 229.666918 280.180059 
z
" clip-path="url(#p2384e8f02c)" style="fill: #ff7f0e; opacity: 0.5"/>
   </g>
   <g id="patch_78">
    <path d="M 236.16 307.584 
L 242.653099 307.584 
L 242.653099 282.681281 
L 236.16 282.681281 
z
" clip-path="url(#p2384e8f02c)" style="fill: #ff7f0e; opacity: 0.5"/>
   </g>
   <g id="patch_79">
    <path d="M 242.653099 307.584 
L 249.146181 307.584 
L 249.146181 286.487315 
L 242.653099 286.487315 
z
" clip-path="url(#p2384e8f02c)" style="fill: #ff7f0e; opacity: 0.5"/>
   </g>
   <g id="patch_80">
    <path d="M 249.146181 307.584 
L 255.639281 307.584 
L 255.639281 290.148472 
L 249.146181 290.148472 
z
" clip-path="url(#p2384e8f02c)" style="fill: #ff7f0e; opacity: 0.5"/>
   </g>
   <g id="patch_81">
    <path d="M 255.639281 307.584 
L 262.132362 307.584 
L 262.132362 290.039678 
L 255.639281 290.039678 
z
" clip-path="url(#p2384e8f02c)" style="fill: #ff7f0e; opacity: 0.5"/>
   </g>
   <g id="patch_82">
    <path d="M 262.132362 307.584 
L 268.625462 307.584 
L 268.625462 292.61337 
L 262.132362 292.61337 
z
" clip-path="url(#p2384e8f02c)" style="fill: #ff7f0e; opacity: 0.5"/>
   </g>
   <g id="patch_83">
    <path d="M 268.625462 307.584 
L 275.118543 307.584 
L 275.118543 295.730708 
L 268.625462 295.730708 
z
" clip-path="url(#p2384e8f02c)" style="fill: #ff7f0e; opacity: 0.5"/>
   </g>
   <g id="patch_84">
    <path d="M 275.118543 307.584 
L 281.611643 307.584 
L 281.611643 297.579414 
L 275.118543 297.579414 
z
" clip-path="url(#p2384e8f02c)" style="fill: #ff7f0e; opacity: 0.5"/>
   </g>
   <g id="patch_85">
    <path d="M 281.611643 307.584 
L 288.104742 307.584 
L 288.104742 298.123142 
L 281.611643 298.123142 
z
" clip-path="url(#p2384e8f02c)" style="fill: #ff7f0e; opacity: 0.5"/>
   </g>
   <g id="patch_86">
    <path d="M 288.104742 307.584 
L 294.597824 307.584 
L 294.597824 300.33428 
L 288.104742 300.33428 
z
" clip-path="url(#p2384e8f02c)" style="fill: #ff7f0e; opacity: 0.5"/>
   </g>
   <g id="patch_87">
    <path d="M 294.597824 307.584 
L 301.090923 307.584 
L 301.090923 300.660537 
L 294.597824 300.660537 
z
" clip-path="url(#p2384e8f02c)" style="fill: #ff7f0e; opacity: 0.5"/>
   </g>
   <g id="patch_88">
    <path d="M 301.090923 307.584 
L 307.584005 307.584 
L 307.584005 302.907931 
L 301.090923 302.907931 
z
" clip-path="url(#p2384e8f02c)" style="fill: #ff7f0e; opacity: 0.5"/>
   </g>
   <g id="patch_89">
    <path d="M 307.584005 307.584 
L 314.077104 307.584 
L 314.077104 303.814156 
L 307.584005 303.814156 
z
" clip-path="url(#p2384e8f02c)" style="fill: #ff7f0e; opacity: 0.5"/>
   </g>
   <g id="patch_90">
    <path d="M 314.077104 307.584 
L 320.570186 307.584 
L 320.570186 304.575366 
L 314.077104 304.575366 
z
" clip-path="url(#p2384e8f02c)" style="fill: #ff7f0e; opacity: 0.5"/>
   </g>
   <g id="patch_91">
    <path d="M 320.570186 307.584 
L 327.063286 307.584 
L 327.063286 304.68412 
L 320.570186 304.68412 
z
" clip-path="url(#p2384e8f02c)" style="fill: #ff7f0e; opacity: 0.5"/>
   </g>
   <g id="patch_92">
    <path d="M 327.063286 307.584 
L 333.556367 307.584 
L 333.556367 305.916564 
L 327.063286 305.916564 
z
" clip-path="url(#p2384e8f02c)" style="fill: #ff7f0e; opacity: 0.5"/>
   </g>
   <g id="patch_93">
    <path d="M 333.556367 307.584 
L 340.049467 307.584 
L 340.049467 305.590333 
L 333.556367 305.590333 
z
" clip-path="url(#p2384e8f02c)" style="fill: #ff7f0e; opacity: 0.5"/>
   </g>
   <g id="patch_94">
    <path d="M 340.049467 307.584 
L 346.542548 307.584 
L 346.542548 306.424045 
L 340.049467 306.424045 
z
" clip-path="url(#p2384e8f02c)" style="fill: #ff7f0e; opacity: 0.5"/>
   </g>
   <g id="patch_95">
    <path d="M 346.542548 307.584 
L 353.035648 307.584 
L 353.035648 306.641539 
L 346.542548 306.641539 
z
" clip-path="url(#p2384e8f02c)" style="fill: #ff7f0e; opacity: 0.5"/>
   </g>
   <g id="patch_96">
    <path d="M 353.035648 307.584 
L 359.528729 307.584 
L 359.528729 306.895277 
L 353.035648 306.895277 
z
" clip-path="url(#p2384e8f02c)" style="fill: #ff7f0e; opacity: 0.5"/>
   </g>
   <g id="patch_97">
    <path d="M 359.528729 307.584 
L 366.021829 307.584 
L 366.021829 307.221515 
L 359.528729 307.221515 
z
" clip-path="url(#p2384e8f02c)" style="fill: #ff7f0e; opacity: 0.5"/>
   </g>
   <g id="patch_98">
    <path d="M 366.021829 307.584 
L 372.514911 307.584 
L 372.514911 307.185265 
L 366.021829 307.185265 
z
" clip-path="url(#p2384e8f02c)" style="fill: #ff7f0e; opacity: 0.5"/>
   </g>
   <g id="patch_99">
    <path d="M 372.514911 307.584 
L 379.007992 307.584 
L 379.007992 307.294011 
L 372.514911 307.294011 
z
" clip-path="url(#p2384e8f02c)" style="fill: #ff7f0e; opacity: 0.5"/>
   </g>
   <g id="patch_100">
    <path d="M 379.007992 307.584 
L 385.501109 307.584 
L 385.501109 307.511503 
L 379.007992 307.511503 
z
" clip-path="url(#p2384e8f02c)" style="fill: #ff7f0e; opacity: 0.5"/>
   </g>
   <g id="patch_101">
    <path d="M 385.501109 307.584 
L 391.994191 307.584 
L 391.994191 307.584 
L 385.501109 307.584 
z
" clip-path="url(#p2384e8f02c)" style="fill: #ff7f0e; opacity: 0.5"/>
   </g>
   <g id="patch_102">
    <path d="M 391.994191 307.584 
L 398.487273 307.584 
L 398.487273 307.547751 
L 391.994191 307.547751 
z
" clip-path="url(#p2384e8f02c)" style="fill: #ff7f0e; opacity: 0.5"/>
   </g>
   <g id="matplotlib.axis_1">
    <g id="xtick_1">
     <g id="line2d_1">
      <defs>
       <path id="md7803a4f6e" d="M 0 0 
L 0 3.5 
" style="stroke: #000000; stroke-width: 0.8"/>
      </defs>
      <g>
       <use xlink:href="#md7803a4f6e" x="73.83223" y="307.584" style="stroke: #000000; stroke-width: 0.8"/>
      </g>
     </g>
     <g id="text_1">
      <!-- 0 -->
      <g transform="translate(70.65098 322.182437) scale(0.1 -0.1)">
       <defs>
        <path id="DejaVuSans-30" d="M 2034 4250 
Q 1547 4250 1301 3770 
Q 1056 3291 1056 2328 
Q 1056 1369 1301 889 
Q 1547 409 2034 409 
Q 2525 409 2770 889 
Q 3016 1369 3016 2328 
Q 3016 3291 2770 3770 
Q 2525 4250 2034 4250 
z
M 2034 4750 
Q 2819 4750 3233 4129 
Q 3647 3509 3647 2328 
Q 3647 1150 3233 529 
Q 2819 -91 2034 -91 
Q 1250 -91 836 529 
Q 422 1150 422 2328 
Q 422 3509 836 4129 
Q 1250 4750 2034 4750 
z
" transform="scale(0.015625)"/>
       </defs>
       <use xlink:href="#DejaVuSans-30"/>
      </g>
     </g>
    </g>
    <g id="xtick_2">
     <g id="line2d_2">
      <g>
       <use xlink:href="#md7803a4f6e" x="146.540885" y="307.584" style="stroke: #000000; stroke-width: 0.8"/>
      </g>
     </g>
     <g id="text_2">
      <!-- 500 -->
      <g transform="translate(136.997135 322.182437) scale(0.1 -0.1)">
       <defs>
        <path id="DejaVuSans-35" d="M 691 4666 
L 3169 4666 
L 3169 4134 
L 1269 4134 
L 1269 2991 
Q 1406 3038 1543 3061 
Q 1681 3084 1819 3084 
Q 2600 3084 3056 2656 
Q 3513 2228 3513 1497 
Q 3513 744 3044 326 
Q 2575 -91 1722 -91 
Q 1428 -91 1123 -41 
Q 819 9 494 109 
L 494 744 
Q 775 591 1075 516 
Q 1375 441 1709 441 
Q 2250 441 2565 725 
Q 2881 1009 2881 1497 
Q 2881 1984 2565 2268 
Q 2250 2553 1709 2553 
Q 1456 2553 1204 2497 
Q 953 2441 691 2322 
L 691 4666 
z
" transform="scale(0.015625)"/>
       </defs>
       <use xlink:href="#DejaVuSans-35"/>
       <use xlink:href="#DejaVuSans-30" transform="translate(63.623047 0)"/>
       <use xlink:href="#DejaVuSans-30" transform="translate(127.246094 0)"/>
      </g>
     </g>
    </g>
    <g id="xtick_3">
     <g id="line2d_3">
      <g>
       <use xlink:href="#md7803a4f6e" x="219.24954" y="307.584" style="stroke: #000000; stroke-width: 0.8"/>
      </g>
     </g>
     <g id="text_3">
      <!-- 1000 -->
      <g transform="translate(206.52454 322.182437) scale(0.1 -0.1)">
       <defs>
        <path id="DejaVuSans-31" d="M 794 531 
L 1825 531 
L 1825 4091 
L 703 3866 
L 703 4441 
L 1819 4666 
L 2450 4666 
L 2450 531 
L 3481 531 
L 3481 0 
L 794 0 
L 794 531 
z
" transform="scale(0.015625)"/>
       </defs>
       <use xlink:href="#DejaVuSans-31"/>
       <use xlink:href="#DejaVuSans-30" transform="translate(63.623047 0)"/>
       <use xlink:href="#DejaVuSans-30" transform="translate(127.246094 0)"/>
       <use xlink:href="#DejaVuSans-30" transform="translate(190.869141 0)"/>
      </g>
     </g>
    </g>
    <g id="xtick_4">
     <g id="line2d_4">
      <g>
       <use xlink:href="#md7803a4f6e" x="291.958194" y="307.584" style="stroke: #000000; stroke-width: 0.8"/>
      </g>
     </g>
     <g id="text_4">
      <!-- 1500 -->
      <g transform="translate(279.233194 322.182437) scale(0.1 -0.1)">
       <use xlink:href="#DejaVuSans-31"/>
       <use xlink:href="#DejaVuSans-35" transform="translate(63.623047 0)"/>
       <use xlink:href="#DejaVuSans-30" transform="translate(127.246094 0)"/>
       <use xlink:href="#DejaVuSans-30" transform="translate(190.869141 0)"/>
      </g>
     </g>
    </g>
    <g id="xtick_5">
     <g id="line2d_5">
      <g>
       <use xlink:href="#md7803a4f6e" x="364.666849" y="307.584" style="stroke: #000000; stroke-width: 0.8"/>
      </g>
     </g>
     <g id="text_5">
      <!-- 2000 -->
      <g transform="translate(351.941849 322.182437) scale(0.1 -0.1)">
       <defs>
        <path id="DejaVuSans-32" d="M 1228 531 
L 3431 531 
L 3431 0 
L 469 0 
L 469 531 
Q 828 903 1448 1529 
Q 2069 2156 2228 2338 
Q 2531 2678 2651 2914 
Q 2772 3150 2772 3378 
Q 2772 3750 2511 3984 
Q 2250 4219 1831 4219 
Q 1534 4219 1204 4116 
Q 875 4013 500 3803 
L 500 4441 
Q 881 4594 1212 4672 
Q 1544 4750 1819 4750 
Q 2544 4750 2975 4387 
Q 3406 4025 3406 3419 
Q 3406 3131 3298 2873 
Q 3191 2616 2906 2266 
Q 2828 2175 2409 1742 
Q 1991 1309 1228 531 
z
" transform="scale(0.015625)"/>
       </defs>
       <use xlink:href="#DejaVuSans-32"/>
       <use xlink:href="#DejaVuSans-30" transform="translate(63.623047 0)"/>
       <use xlink:href="#DejaVuSans-30" transform="translate(127.246094 0)"/>
       <use xlink:href="#DejaVuSans-30" transform="translate(190.869141 0)"/>
      </g>
     </g>
    </g>
    <g id="text_6">
     <!-- Rating absolute error -->
     <g transform="translate(183.264687 335.860562) scale(0.1 -0.1)">
      <defs>
       <path id="DejaVuSans-52" d="M 2841 2188 
Q 3044 2119 3236 1894 
Q 3428 1669 3622 1275 
L 4263 0 
L 3584 0 
L 2988 1197 
Q 2756 1666 2539 1819 
Q 2322 1972 1947 1972 
L 1259 1972 
L 1259 0 
L 628 0 
L 628 4666 
L 2053 4666 
Q 2853 4666 3247 4331 
Q 3641 3997 3641 3322 
Q 3641 2881 3436 2590 
Q 3231 2300 2841 2188 
z
M 1259 4147 
L 1259 2491 
L 2053 2491 
Q 2509 2491 2742 2702 
Q 2975 2913 2975 3322 
Q 2975 3731 2742 3939 
Q 2509 4147 2053 4147 
L 1259 4147 
z
" transform="scale(0.015625)"/>
       <path id="DejaVuSans-61" d="M 2194 1759 
Q 1497 1759 1228 1600 
Q 959 1441 959 1056 
Q 959 750 1161 570 
Q 1363 391 1709 391 
Q 2188 391 2477 730 
Q 2766 1069 2766 1631 
L 2766 1759 
L 2194 1759 
z
M 3341 1997 
L 3341 0 
L 2766 0 
L 2766 531 
Q 2569 213 2275 61 
Q 1981 -91 1556 -91 
Q 1019 -91 701 211 
Q 384 513 384 1019 
Q 384 1609 779 1909 
Q 1175 2209 1959 2209 
L 2766 2209 
L 2766 2266 
Q 2766 2663 2505 2880 
Q 2244 3097 1772 3097 
Q 1472 3097 1187 3025 
Q 903 2953 641 2809 
L 641 3341 
Q 956 3463 1253 3523 
Q 1550 3584 1831 3584 
Q 2591 3584 2966 3190 
Q 3341 2797 3341 1997 
z
" transform="scale(0.015625)"/>
       <path id="DejaVuSans-74" d="M 1172 4494 
L 1172 3500 
L 2356 3500 
L 2356 3053 
L 1172 3053 
L 1172 1153 
Q 1172 725 1289 603 
Q 1406 481 1766 481 
L 2356 481 
L 2356 0 
L 1766 0 
Q 1100 0 847 248 
Q 594 497 594 1153 
L 594 3053 
L 172 3053 
L 172 3500 
L 594 3500 
L 594 4494 
L 1172 4494 
z
" transform="scale(0.015625)"/>
       <path id="DejaVuSans-69" d="M 603 3500 
L 1178 3500 
L 1178 0 
L 603 0 
L 603 3500 
z
M 603 4863 
L 1178 4863 
L 1178 4134 
L 603 4134 
L 603 4863 
z
" transform="scale(0.015625)"/>
       <path id="DejaVuSans-6e" d="M 3513 2113 
L 3513 0 
L 2938 0 
L 2938 2094 
Q 2938 2591 2744 2837 
Q 2550 3084 2163 3084 
Q 1697 3084 1428 2787 
Q 1159 2491 1159 1978 
L 1159 0 
L 581 0 
L 581 3500 
L 1159 3500 
L 1159 2956 
Q 1366 3272 1645 3428 
Q 1925 3584 2291 3584 
Q 2894 3584 3203 3211 
Q 3513 2838 3513 2113 
z
" transform="scale(0.015625)"/>
       <path id="DejaVuSans-67" d="M 2906 1791 
Q 2906 2416 2648 2759 
Q 2391 3103 1925 3103 
Q 1463 3103 1205 2759 
Q 947 2416 947 1791 
Q 947 1169 1205 825 
Q 1463 481 1925 481 
Q 2391 481 2648 825 
Q 2906 1169 2906 1791 
z
M 3481 434 
Q 3481 -459 3084 -895 
Q 2688 -1331 1869 -1331 
Q 1566 -1331 1297 -1286 
Q 1028 -1241 775 -1147 
L 775 -588 
Q 1028 -725 1275 -790 
Q 1522 -856 1778 -856 
Q 2344 -856 2625 -561 
Q 2906 -266 2906 331 
L 2906 616 
Q 2728 306 2450 153 
Q 2172 0 1784 0 
Q 1141 0 747 490 
Q 353 981 353 1791 
Q 353 2603 747 3093 
Q 1141 3584 1784 3584 
Q 2172 3584 2450 3431 
Q 2728 3278 2906 2969 
L 2906 3500 
L 3481 3500 
L 3481 434 
z
" transform="scale(0.015625)"/>
       <path id="DejaVuSans-20" transform="scale(0.015625)"/>
       <path id="DejaVuSans-62" d="M 3116 1747 
Q 3116 2381 2855 2742 
Q 2594 3103 2138 3103 
Q 1681 3103 1420 2742 
Q 1159 2381 1159 1747 
Q 1159 1113 1420 752 
Q 1681 391 2138 391 
Q 2594 391 2855 752 
Q 3116 1113 3116 1747 
z
M 1159 2969 
Q 1341 3281 1617 3432 
Q 1894 3584 2278 3584 
Q 2916 3584 3314 3078 
Q 3713 2572 3713 1747 
Q 3713 922 3314 415 
Q 2916 -91 2278 -91 
Q 1894 -91 1617 61 
Q 1341 213 1159 525 
L 1159 0 
L 581 0 
L 581 4863 
L 1159 4863 
L 1159 2969 
z
" transform="scale(0.015625)"/>
       <path id="DejaVuSans-73" d="M 2834 3397 
L 2834 2853 
Q 2591 2978 2328 3040 
Q 2066 3103 1784 3103 
Q 1356 3103 1142 2972 
Q 928 2841 928 2578 
Q 928 2378 1081 2264 
Q 1234 2150 1697 2047 
L 1894 2003 
Q 2506 1872 2764 1633 
Q 3022 1394 3022 966 
Q 3022 478 2636 193 
Q 2250 -91 1575 -91 
Q 1294 -91 989 -36 
Q 684 19 347 128 
L 347 722 
Q 666 556 975 473 
Q 1284 391 1588 391 
Q 1994 391 2212 530 
Q 2431 669 2431 922 
Q 2431 1156 2273 1281 
Q 2116 1406 1581 1522 
L 1381 1569 
Q 847 1681 609 1914 
Q 372 2147 372 2553 
Q 372 3047 722 3315 
Q 1072 3584 1716 3584 
Q 2034 3584 2315 3537 
Q 2597 3491 2834 3397 
z
" transform="scale(0.015625)"/>
       <path id="DejaVuSans-6f" d="M 1959 3097 
Q 1497 3097 1228 2736 
Q 959 2375 959 1747 
Q 959 1119 1226 758 
Q 1494 397 1959 397 
Q 2419 397 2687 759 
Q 2956 1122 2956 1747 
Q 2956 2369 2687 2733 
Q 2419 3097 1959 3097 
z
M 1959 3584 
Q 2709 3584 3137 3096 
Q 3566 2609 3566 1747 
Q 3566 888 3137 398 
Q 2709 -91 1959 -91 
Q 1206 -91 779 398 
Q 353 888 353 1747 
Q 353 2609 779 3096 
Q 1206 3584 1959 3584 
z
" transform="scale(0.015625)"/>
       <path id="DejaVuSans-6c" d="M 603 4863 
L 1178 4863 
L 1178 0 
L 603 0 
L 603 4863 
z
" transform="scale(0.015625)"/>
       <path id="DejaVuSans-75" d="M 544 1381 
L 544 3500 
L 1119 3500 
L 1119 1403 
Q 1119 906 1312 657 
Q 1506 409 1894 409 
Q 2359 409 2629 706 
Q 2900 1003 2900 1516 
L 2900 3500 
L 3475 3500 
L 3475 0 
L 2900 0 
L 2900 538 
Q 2691 219 2414 64 
Q 2138 -91 1772 -91 
Q 1169 -91 856 284 
Q 544 659 544 1381 
z
M 1991 3584 
L 1991 3584 
z
" transform="scale(0.015625)"/>
       <path id="DejaVuSans-65" d="M 3597 1894 
L 3597 1613 
L 953 1613 
Q 991 1019 1311 708 
Q 1631 397 2203 397 
Q 2534 397 2845 478 
Q 3156 559 3463 722 
L 3463 178 
Q 3153 47 2828 -22 
Q 2503 -91 2169 -91 
Q 1331 -91 842 396 
Q 353 884 353 1716 
Q 353 2575 817 3079 
Q 1281 3584 2069 3584 
Q 2775 3584 3186 3129 
Q 3597 2675 3597 1894 
z
M 3022 2063 
Q 3016 2534 2758 2815 
Q 2500 3097 2075 3097 
Q 1594 3097 1305 2825 
Q 1016 2553 972 2059 
L 3022 2063 
z
" transform="scale(0.015625)"/>
       <path id="DejaVuSans-72" d="M 2631 2963 
Q 2534 3019 2420 3045 
Q 2306 3072 2169 3072 
Q 1681 3072 1420 2755 
Q 1159 2438 1159 1844 
L 1159 0 
L 581 0 
L 581 3500 
L 1159 3500 
L 1159 2956 
Q 1341 3275 1631 3429 
Q 1922 3584 2338 3584 
Q 2397 3584 2469 3576 
Q 2541 3569 2628 3553 
L 2631 2963 
z
" transform="scale(0.015625)"/>
      </defs>
      <use xlink:href="#DejaVuSans-52"/>
      <use xlink:href="#DejaVuSans-61" transform="translate(67.232422 0)"/>
      <use xlink:href="#DejaVuSans-74" transform="translate(128.511719 0)"/>
      <use xlink:href="#DejaVuSans-69" transform="translate(167.720703 0)"/>
      <use xlink:href="#DejaVuSans-6e" transform="translate(195.503906 0)"/>
      <use xlink:href="#DejaVuSans-67" transform="translate(258.882812 0)"/>
      <use xlink:href="#DejaVuSans-20" transform="translate(322.359375 0)"/>
      <use xlink:href="#DejaVuSans-61" transform="translate(354.146484 0)"/>
      <use xlink:href="#DejaVuSans-62" transform="translate(415.425781 0)"/>
      <use xlink:href="#DejaVuSans-73" transform="translate(478.902344 0)"/>
      <use xlink:href="#DejaVuSans-6f" transform="translate(531.001953 0)"/>
      <use xlink:href="#DejaVuSans-6c" transform="translate(592.183594 0)"/>
      <use xlink:href="#DejaVuSans-75" transform="translate(619.966797 0)"/>
      <use xlink:href="#DejaVuSans-74" transform="translate(683.345703 0)"/>
      <use xlink:href="#DejaVuSans-65" transform="translate(722.554688 0)"/>
      <use xlink:href="#DejaVuSans-20" transform="translate(784.078125 0)"/>
      <use xlink:href="#DejaVuSans-65" transform="translate(815.865234 0)"/>
      <use xlink:href="#DejaVuSans-72" transform="translate(877.388672 0)"/>
      <use xlink:href="#DejaVuSans-72" transform="translate(916.751953 0)"/>
      <use xlink:href="#DejaVuSans-6f" transform="translate(955.615234 0)"/>
      <use xlink:href="#DejaVuSans-72" transform="translate(1016.796875 0)"/>
     </g>
    </g>
   </g>
   <g id="matplotlib.axis_2">
    <g id="ytick_1">
     <g id="line2d_6">
      <defs>
       <path id="m63d54e3e40" d="M 0 0 
L -3.5 0 
" style="stroke: #000000; stroke-width: 0.8"/>
      </defs>
      <g>
       <use xlink:href="#m63d54e3e40" x="57.6" y="307.584" style="stroke: #000000; stroke-width: 0.8"/>
      </g>
     </g>
     <g id="text_7">
      <!-- 0.0000 -->
      <g transform="translate(15.609375 311.383219) scale(0.1 -0.1)">
       <defs>
        <path id="DejaVuSans-2e" d="M 684 794 
L 1344 794 
L 1344 0 
L 684 0 
L 684 794 
z
" transform="scale(0.015625)"/>
       </defs>
       <use xlink:href="#DejaVuSans-30"/>
       <use xlink:href="#DejaVuSans-2e" transform="translate(63.623047 0)"/>
       <use xlink:href="#DejaVuSans-30" transform="translate(95.410156 0)"/>
       <use xlink:href="#DejaVuSans-30" transform="translate(159.033203 0)"/>
       <use xlink:href="#DejaVuSans-30" transform="translate(222.65625 0)"/>
       <use xlink:href="#DejaVuSans-30" transform="translate(286.279297 0)"/>
      </g>
     </g>
    </g>
    <g id="ytick_2">
     <g id="line2d_7">
      <g>
       <use xlink:href="#m63d54e3e40" x="57.6" y="262.264614" style="stroke: #000000; stroke-width: 0.8"/>
      </g>
     </g>
     <g id="text_8">
      <!-- 0.0005 -->
      <g transform="translate(15.609375 266.063833) scale(0.1 -0.1)">
       <use xlink:href="#DejaVuSans-30"/>
       <use xlink:href="#DejaVuSans-2e" transform="translate(63.623047 0)"/>
       <use xlink:href="#DejaVuSans-30" transform="translate(95.410156 0)"/>
       <use xlink:href="#DejaVuSans-30" transform="translate(159.033203 0)"/>
       <use xlink:href="#DejaVuSans-30" transform="translate(222.65625 0)"/>
       <use xlink:href="#DejaVuSans-35" transform="translate(286.279297 0)"/>
      </g>
     </g>
    </g>
    <g id="ytick_3">
     <g id="line2d_8">
      <g>
       <use xlink:href="#m63d54e3e40" x="57.6" y="216.945228" style="stroke: #000000; stroke-width: 0.8"/>
      </g>
     </g>
     <g id="text_9">
      <!-- 0.0010 -->
      <g transform="translate(15.609375 220.744447) scale(0.1 -0.1)">
       <use xlink:href="#DejaVuSans-30"/>
       <use xlink:href="#DejaVuSans-2e" transform="translate(63.623047 0)"/>
       <use xlink:href="#DejaVuSans-30" transform="translate(95.410156 0)"/>
       <use xlink:href="#DejaVuSans-30" transform="translate(159.033203 0)"/>
       <use xlink:href="#DejaVuSans-31" transform="translate(222.65625 0)"/>
       <use xlink:href="#DejaVuSans-30" transform="translate(286.279297 0)"/>
      </g>
     </g>
    </g>
    <g id="ytick_4">
     <g id="line2d_9">
      <g>
       <use xlink:href="#m63d54e3e40" x="57.6" y="171.625842" style="stroke: #000000; stroke-width: 0.8"/>
      </g>
     </g>
     <g id="text_10">
      <!-- 0.0015 -->
      <g transform="translate(15.609375 175.425061) scale(0.1 -0.1)">
       <use xlink:href="#DejaVuSans-30"/>
       <use xlink:href="#DejaVuSans-2e" transform="translate(63.623047 0)"/>
       <use xlink:href="#DejaVuSans-30" transform="translate(95.410156 0)"/>
       <use xlink:href="#DejaVuSans-30" transform="translate(159.033203 0)"/>
       <use xlink:href="#DejaVuSans-31" transform="translate(222.65625 0)"/>
       <use xlink:href="#DejaVuSans-35" transform="translate(286.279297 0)"/>
      </g>
     </g>
    </g>
    <g id="ytick_5">
     <g id="line2d_10">
      <g>
       <use xlink:href="#m63d54e3e40" x="57.6" y="126.306456" style="stroke: #000000; stroke-width: 0.8"/>
      </g>
     </g>
     <g id="text_11">
      <!-- 0.0020 -->
      <g transform="translate(15.609375 130.105675) scale(0.1 -0.1)">
       <use xlink:href="#DejaVuSans-30"/>
       <use xlink:href="#DejaVuSans-2e" transform="translate(63.623047 0)"/>
       <use xlink:href="#DejaVuSans-30" transform="translate(95.410156 0)"/>
       <use xlink:href="#DejaVuSans-30" transform="translate(159.033203 0)"/>
       <use xlink:href="#DejaVuSans-32" transform="translate(222.65625 0)"/>
       <use xlink:href="#DejaVuSans-30" transform="translate(286.279297 0)"/>
      </g>
     </g>
    </g>
    <g id="ytick_6">
     <g id="line2d_11">
      <g>
       <use xlink:href="#m63d54e3e40" x="57.6" y="80.987071" style="stroke: #000000; stroke-width: 0.8"/>
      </g>
     </g>
     <g id="text_12">
      <!-- 0.0025 -->
      <g transform="translate(15.609375 84.786289) scale(0.1 -0.1)">
       <use xlink:href="#DejaVuSans-30"/>
       <use xlink:href="#DejaVuSans-2e" transform="translate(63.623047 0)"/>
       <use xlink:href="#DejaVuSans-30" transform="translate(95.410156 0)"/>
       <use xlink:href="#DejaVuSans-30" transform="translate(159.033203 0)"/>
       <use xlink:href="#DejaVuSans-32" transform="translate(222.65625 0)"/>
       <use xlink:href="#DejaVuSans-35" transform="translate(286.279297 0)"/>
      </g>
     </g>
    </g>
   </g>
   <g id="patch_103">
    <path d="M 57.6 307.584 
L 57.6 41.472 
" style="fill: none; stroke: #000000; stroke-width: 0.8; stroke-linejoin: miter; stroke-linecap: square"/>
   </g>
   <g id="patch_104">
    <path d="M 414.72 307.584 
L 414.72 41.472 
" style="fill: none; stroke: #000000; stroke-width: 0.8; stroke-linejoin: miter; stroke-linecap: square"/>
   </g>
   <g id="patch_105">
    <path d="M 57.6 307.584 
L 414.72 307.584 
" style="fill: none; stroke: #000000; stroke-width: 0.8; stroke-linejoin: miter; stroke-linecap: square"/>
   </g>
   <g id="patch_106">
    <path d="M 57.6 41.472 
L 414.72 41.472 
" style="fill: none; stroke: #000000; stroke-width: 0.8; stroke-linejoin: miter; stroke-linecap: square"/>
   </g>
   <g id="legend_1">
    <g id="patch_107">
     <path d="M 301.618438 78.82825 
L 407.72 78.82825 
Q 409.72 78.82825 409.72 76.82825 
L 409.72 48.472 
Q 409.72 46.472 407.72 46.472 
L 301.618438 46.472 
Q 299.618438 46.472 299.618438 48.472 
L 299.618438 76.82825 
Q 299.618438 78.82825 301.618438 78.82825 
z
" style="fill: #ffffff; opacity: 0.8; stroke: #cccccc; stroke-linejoin: miter"/>
    </g>
    <g id="patch_108">
     <path d="M 303.618438 58.070437 
L 323.618438 58.070437 
L 323.618438 51.070437 
L 303.618438 51.070437 
z
" style="fill: #1f77b4; opacity: 0.5"/>
    </g>
    <g id="text_13">
     <!-- Normal Errors -->
     <g transform="translate(331.618438 58.070437) scale(0.1 -0.1)">
      <defs>
       <path id="DejaVuSans-4e" d="M 628 4666 
L 1478 4666 
L 3547 763 
L 3547 4666 
L 4159 4666 
L 4159 0 
L 3309 0 
L 1241 3903 
L 1241 0 
L 628 0 
L 628 4666 
z
" transform="scale(0.015625)"/>
       <path id="DejaVuSans-6d" d="M 3328 2828 
Q 3544 3216 3844 3400 
Q 4144 3584 4550 3584 
Q 5097 3584 5394 3201 
Q 5691 2819 5691 2113 
L 5691 0 
L 5113 0 
L 5113 2094 
Q 5113 2597 4934 2840 
Q 4756 3084 4391 3084 
Q 3944 3084 3684 2787 
Q 3425 2491 3425 1978 
L 3425 0 
L 2847 0 
L 2847 2094 
Q 2847 2600 2669 2842 
Q 2491 3084 2119 3084 
Q 1678 3084 1418 2786 
Q 1159 2488 1159 1978 
L 1159 0 
L 581 0 
L 581 3500 
L 1159 3500 
L 1159 2956 
Q 1356 3278 1631 3431 
Q 1906 3584 2284 3584 
Q 2666 3584 2933 3390 
Q 3200 3197 3328 2828 
z
" transform="scale(0.015625)"/>
       <path id="DejaVuSans-45" d="M 628 4666 
L 3578 4666 
L 3578 4134 
L 1259 4134 
L 1259 2753 
L 3481 2753 
L 3481 2222 
L 1259 2222 
L 1259 531 
L 3634 531 
L 3634 0 
L 628 0 
L 628 4666 
z
" transform="scale(0.015625)"/>
      </defs>
      <use xlink:href="#DejaVuSans-4e"/>
      <use xlink:href="#DejaVuSans-6f" transform="translate(74.804688 0)"/>
      <use xlink:href="#DejaVuSans-72" transform="translate(135.986328 0)"/>
      <use xlink:href="#DejaVuSans-6d" transform="translate(175.349609 0)"/>
      <use xlink:href="#DejaVuSans-61" transform="translate(272.761719 0)"/>
      <use xlink:href="#DejaVuSans-6c" transform="translate(334.041016 0)"/>
      <use xlink:href="#DejaVuSans-20" transform="translate(361.824219 0)"/>
      <use xlink:href="#DejaVuSans-45" transform="translate(393.611328 0)"/>
      <use xlink:href="#DejaVuSans-72" transform="translate(456.794922 0)"/>
      <use xlink:href="#DejaVuSans-72" transform="translate(496.158203 0)"/>
      <use xlink:href="#DejaVuSans-6f" transform="translate(535.021484 0)"/>
      <use xlink:href="#DejaVuSans-72" transform="translate(596.203125 0)"/>
      <use xlink:href="#DejaVuSans-73" transform="translate(637.316406 0)"/>
     </g>
    </g>
    <g id="patch_109">
     <path d="M 303.618438 72.748562 
L 323.618438 72.748562 
L 323.618438 65.748562 
L 303.618438 65.748562 
z
" style="fill: #ff7f0e; opacity: 0.5"/>
    </g>
    <g id="text_14">
     <!-- Shuffled Errors -->
     <g transform="translate(331.618438 72.748562) scale(0.1 -0.1)">
      <defs>
       <path id="DejaVuSans-53" d="M 3425 4513 
L 3425 3897 
Q 3066 4069 2747 4153 
Q 2428 4238 2131 4238 
Q 1616 4238 1336 4038 
Q 1056 3838 1056 3469 
Q 1056 3159 1242 3001 
Q 1428 2844 1947 2747 
L 2328 2669 
Q 3034 2534 3370 2195 
Q 3706 1856 3706 1288 
Q 3706 609 3251 259 
Q 2797 -91 1919 -91 
Q 1588 -91 1214 -16 
Q 841 59 441 206 
L 441 856 
Q 825 641 1194 531 
Q 1563 422 1919 422 
Q 2459 422 2753 634 
Q 3047 847 3047 1241 
Q 3047 1584 2836 1778 
Q 2625 1972 2144 2069 
L 1759 2144 
Q 1053 2284 737 2584 
Q 422 2884 422 3419 
Q 422 4038 858 4394 
Q 1294 4750 2059 4750 
Q 2388 4750 2728 4690 
Q 3069 4631 3425 4513 
z
" transform="scale(0.015625)"/>
       <path id="DejaVuSans-68" d="M 3513 2113 
L 3513 0 
L 2938 0 
L 2938 2094 
Q 2938 2591 2744 2837 
Q 2550 3084 2163 3084 
Q 1697 3084 1428 2787 
Q 1159 2491 1159 1978 
L 1159 0 
L 581 0 
L 581 4863 
L 1159 4863 
L 1159 2956 
Q 1366 3272 1645 3428 
Q 1925 3584 2291 3584 
Q 2894 3584 3203 3211 
Q 3513 2838 3513 2113 
z
" transform="scale(0.015625)"/>
       <path id="DejaVuSans-66" d="M 2375 4863 
L 2375 4384 
L 1825 4384 
Q 1516 4384 1395 4259 
Q 1275 4134 1275 3809 
L 1275 3500 
L 2222 3500 
L 2222 3053 
L 1275 3053 
L 1275 0 
L 697 0 
L 697 3053 
L 147 3053 
L 147 3500 
L 697 3500 
L 697 3744 
Q 697 4328 969 4595 
Q 1241 4863 1831 4863 
L 2375 4863 
z
" transform="scale(0.015625)"/>
       <path id="DejaVuSans-64" d="M 2906 2969 
L 2906 4863 
L 3481 4863 
L 3481 0 
L 2906 0 
L 2906 525 
Q 2725 213 2448 61 
Q 2172 -91 1784 -91 
Q 1150 -91 751 415 
Q 353 922 353 1747 
Q 353 2572 751 3078 
Q 1150 3584 1784 3584 
Q 2172 3584 2448 3432 
Q 2725 3281 2906 2969 
z
M 947 1747 
Q 947 1113 1208 752 
Q 1469 391 1925 391 
Q 2381 391 2643 752 
Q 2906 1113 2906 1747 
Q 2906 2381 2643 2742 
Q 2381 3103 1925 3103 
Q 1469 3103 1208 2742 
Q 947 2381 947 1747 
z
" transform="scale(0.015625)"/>
      </defs>
      <use xlink:href="#DejaVuSans-53"/>
      <use xlink:href="#DejaVuSans-68" transform="translate(63.476562 0)"/>
      <use xlink:href="#DejaVuSans-75" transform="translate(126.855469 0)"/>
      <use xlink:href="#DejaVuSans-66" transform="translate(190.234375 0)"/>
      <use xlink:href="#DejaVuSans-66" transform="translate(225.439453 0)"/>
      <use xlink:href="#DejaVuSans-6c" transform="translate(260.644531 0)"/>
      <use xlink:href="#DejaVuSans-65" transform="translate(288.427734 0)"/>
      <use xlink:href="#DejaVuSans-64" transform="translate(349.951172 0)"/>
      <use xlink:href="#DejaVuSans-20" transform="translate(413.427734 0)"/>
      <use xlink:href="#DejaVuSans-45" transform="translate(445.214844 0)"/>
      <use xlink:href="#DejaVuSans-72" transform="translate(508.398438 0)"/>
      <use xlink:href="#DejaVuSans-72" transform="translate(547.761719 0)"/>
      <use xlink:href="#DejaVuSans-6f" transform="translate(586.625 0)"/>
      <use xlink:href="#DejaVuSans-72" transform="translate(647.806641 0)"/>
      <use xlink:href="#DejaVuSans-73" transform="translate(688.919922 0)"/>
     </g>
    </g>
   </g>
  </g>
 </g>
 <defs>
  <clipPath id="p2384e8f02c">
   <rect x="57.6" y="41.472" width="357.12" height="266.112"/>
  </clipPath>
 </defs>
</svg>
